<?xml version="1.0" encoding="utf-8"?>
<!-- Generator: Adobe Illustrator 16.0.0, SVG Export Plug-In . SVG Version: 6.00 Build 0)  -->
<!DOCTYPE svg PUBLIC "-//W3C//DTD SVG 1.1//EN" "http://www.w3.org/Graphics/SVG/1.1/DTD/svg11.dtd">
<svg version="1.1" id="Layer_1" xmlns="http://www.w3.org/2000/svg" xmlns:xlink="http://www.w3.org/1999/xlink" x="0px" y="0px"
	 width="80px" height="80px" viewBox="0 0 80 80" enable-background="new 0 0 80 80" xml:space="preserve">
<g>
	<g>
		<ellipse fill="#EC2227" cx="41.359" cy="46.012" rx="31.354" ry="26.626"/>
		
			<linearGradient id="SVGID_1_" gradientUnits="userSpaceOnUse" x1="274.458" y1="-246.0439" x2="303.2593" y2="-293.9775" gradientTransform="matrix(1 0 0 -1 -247.5 -224)">
			<stop  offset="0.6319" style="stop-color:#EC2227"/>
			<stop  offset="0.6892" style="stop-color:#E52127"/>
			<stop  offset="0.7441" style="stop-color:#DA1F27"/>
			<stop  offset="0.798" style="stop-color:#C82127"/>
			<stop  offset="0.8512" style="stop-color:#AF2024"/>
			<stop  offset="0.9041" style="stop-color:#911A1D"/>
			<stop  offset="0.9558" style="stop-color:#6F0F10"/>
			<stop  offset="1" style="stop-color:#4C1211"/>
		</linearGradient>
		<ellipse fill="url(#SVGID_1_)" cx="41.359" cy="46.012" rx="31.354" ry="26.626"/>
		
			<radialGradient id="SVGID_2_" cx="587.5322" cy="-620.792" r="31.8259" gradientTransform="matrix(0.5725 0 0 -0.5753 -306.4351 -313.6079)" gradientUnits="userSpaceOnUse">
			<stop  offset="0" style="stop-color:#FCBA64"/>
			<stop  offset="0.0515" style="stop-color:#FBB05F"/>
			<stop  offset="0.297" style="stop-color:#F58643"/>
			<stop  offset="0.5233" style="stop-color:#F26431"/>
			<stop  offset="0.7231" style="stop-color:#EF4526"/>
			<stop  offset="0.8888" style="stop-color:#EE2D27"/>
			<stop  offset="1" style="stop-color:#EC2227"/>
		</radialGradient>
		<path fill="url(#SVGID_2_)" d="M49.586,43.901c0,8.576-8.129,16.371-19.449,16.371s-19.868-7.164-19.868-15.74
			s8.338-17.738,19.658-17.738C41.246,26.792,49.586,35.324,49.586,43.901z"/>
	</g>
	<g>
		<path fill="#1C2E1B" d="M48.318,18.008c-0.52-1.916-2.846-2.4-3.244-2.96c3.484,4.922-0.641,3.572-1.883,1.35
			c-0.934-1.674,0.66-3.222,1.664-3.832c-1.701,0.064-3.441,1.053-5.241,2.967c0.368,1.283,0.696,2.334,0.986,3.176l2.864-1.683
			c-1.043,0.927-1.49,1.872-1.334,2.86c1.564,0.484,3.381,1.662,5.414,3.554c-2.939-1.346-5.029-1.661-6.287-0.945
			c0.059,1.01-0.211,2.502-0.791,4.479c-0.561-1.578-1.818-2.607-3.772-3.132c-1.354-0.358-3.056,0.168-5.105,1.576
			c1.334-1.704,2.244-2.944,2.748-3.722c0.445-0.652-0.349-1.536-2.398-2.629c1.876,0.904,3.172,0.484,3.888-1.262
			c-0.521,1.704-0.619,2.796-0.31,3.238c0.31,0.441,0.774,0.672,1.412,0.693c1.14-0.125,1.662-0.819,1.605-2.104
			c-0.252-0.568-0.292-1.85-0.136-3.848c0.154-2.019,0.639-3.744,1.45-5.194c0.792-1.452,1.499-0.578,0.376-2.008l-2.25-0.79
			c-0.56,1.958-0.232,5.025-1.992,9.105c-2.166-1.052-3.888-2.102-5.182-3.134l2.32,3.66c-2.032-0.02-3.521,0.232-4.469,0.756
			c-0.947,0.504-1.43,1.488-2.784,1.718c-1.374,0.23-2.5,0.418-5.344-1.498c1.052,0.708,2.83,3.372,4.687,3.877
			c2.571,0.525,4.452,1.878,4.594,0.649c-0.145,1.252,0.392,0.506-0.288,0.208c-4.044-1.768-12.392,7.414-13.4,7.872
			c7.542-3.436,13.122-6.654,15.704-2.442c0.576,0.94,1.536,2.297-0.144,4.177c-0.914,1.021-2.956,0.821-9.506,2.714
			c3.41-0.984,14.116,4.802,16.382-7.244c-0.182,0.968,4.85,2.326,7.287,5.334c2.742,3.388,3.873,5.404,4.68,10.242
			c0.328,1.973,0.805-9.168-0.266-12.08c-1.43-3.886-2.559-4.29-4.623-5.43c0.389,0.214,0.732-0.211,0.928-0.274
			c1.199-0.232,2.322-0.336,3.346-0.336h0.021c1.414,0,2.9,0.168,4.467,0.528c0.078,0.02,0.154,0.02,0.252,0.041l0.273,0.064
			c0.209,0.064,0.441,0.126,0.695,0.188l0.48,0.126c1.258,0.357,2.594,0.842,3.967,1.407c1.256,0.526,2.57,1.137,3.926,1.853
			c0.869,0.441,1.76,0.945,2.668,1.472c-0.561-0.8-1.18-1.558-1.857-2.271c-0.098-0.106-0.211-0.232-0.309-0.336
			c-3.633-3.723-11.801-7.988-18.969-7.811C47.277,20.884,49.207,21.273,48.318,18.008z"/>
		<path fill="#659B41" d="M48.318,17.481c-0.52-1.916-2.709-1.657-3.105-2.218c3.482,4.92-0.779,2.828-2.021,0.606
			c-0.938-1.674,0.656-2.696,1.664-3.307c-1.703,0.064-3.445,0.526-5.243,2.438c0.368,1.282,0.696,2.334,0.986,3.176l2.864-1.682
			c-1.045,0.926-1.49,1.872-1.334,2.859c1.566,0.484,3.383,1.662,5.414,3.555c-2.941-1.347-5.027-1.662-6.285-0.946
			c0.057,1.01-0.213,2.502-0.793,4.479c-0.561-1.577-1.818-2.607-3.772-3.132c-1.354-0.357-3.056,0.168-5.105,1.576
			c1.334-1.704,2.244-2.944,2.748-3.722c0.445-0.652-0.349-1.536-2.398-2.628c1.876,0.903,3.172,0.483,3.888-1.263
			c-0.521,1.704-0.619,2.796-0.31,3.238s0.774,0.672,1.412,0.694c1.14-0.126,1.662-0.82,1.605-2.104
			c-0.252-0.567-0.292-1.85-0.136-3.848c0.154-2.021,0.638-3.744,1.45-5.196c0.792-1.452,1.497-0.578,0.376-2.008l-2.25-0.788
			c-0.56,1.958-0.232,5.026-1.992,9.106c-2.166-1.053-3.792-1.45-5.088-2.48l2.226,3.004c-2.031-0.02-3.52,0.232-4.468,0.758
			c-0.947,0.505-1.43,1.486-2.784,1.719c-1.374,0.231-2.38,0.92-5.224-0.996c1.052,0.708,2.708,2.87,4.566,3.376
			c2.571,0.525,4.392-2.092,4.54-0.311c-0.104-1.256,0.447,1.464-0.234,1.166c-4.044-1.768-12.392,7.414-13.4,7.872
			c7.542-3.436,13.122-6.656,15.704-2.441c0.576,0.939,1.536,2.296-0.144,4.176c-0.914,1.021-2.956,0.822-9.506,2.714
			c3.409-0.984,14.115,4.802,16.382-7.244c-0.183,0.968,4.85,2.324,7.289,5.334c2.742,3.386,3.871,5.404,4.676,10.241
			c0.328,1.973,0.807-9.167-0.262-12.079c-1.432-3.886-2.559-4.29-4.625-5.43c0.387,0.214,0.734-0.21,0.928-0.272
			c1.201-0.231,2.322-0.336,3.346-0.336h0.02c1.414,0,2.902,0.168,4.469,0.526c0.078,0.02,0.154,0.02,0.252,0.042l0.271,0.063
			c0.211,0.064,0.445,0.126,0.695,0.19l0.484,0.126c1.258,0.358,2.59,0.842,3.965,1.41c1.256,0.525,2.57,1.136,3.926,1.85
			c0.871,0.442,1.76,0.946,2.668,1.472c-0.559-0.798-1.18-1.556-1.857-2.27c-0.096-0.106-0.209-0.232-0.309-0.336
			c-3.635-3.722-11.799-7.988-18.971-7.811C47.277,20.355,49.207,20.748,48.318,17.481z"/>
		
			<radialGradient id="SVGID_3_" cx="287.0625" cy="-240.8535" r="8.821" gradientTransform="matrix(1 0 0 -1 -247.5 -224)" gradientUnits="userSpaceOnUse">
			<stop  offset="0" style="stop-color:#3C2517"/>
			<stop  offset="0.2307" style="stop-color:#3C2717"/>
			<stop  offset="0.3801" style="stop-color:#3E2D1B"/>
			<stop  offset="0.5064" style="stop-color:#3E3720"/>
			<stop  offset="0.62" style="stop-color:#3A4427"/>
			<stop  offset="0.7239" style="stop-color:#2F5630"/>
			<stop  offset="0.8077" style="stop-color:#046938"/>
		</radialGradient>
		<path fill="url(#SVGID_3_)" d="M40.793,8.021c-0.368-1.115-2.244-0.357-2.824-0.758c1.122,1.43,2.758-0.406,1.668,2.816
			c-0.532,1.576-1.332,2.538-1.412,5.02c-0.066,2.004-0.132,2.926,0.016,3.74c0.232,1.264-0.176,2.24-1.315,2.368
			c-0.638-0.022-1.103-0.252-1.412-0.694s-0.212-1.536,0.31-3.238c-0.716,1.746-2.012,2.166-3.888,1.263
			c2.05,1.094,2.844,1.976,2.398,2.628c-0.505,0.777-1.412,2.018-2.748,3.722c2.05-1.408,3.752-1.934,5.105-1.576
			c1.954,0.526,3.21,1.557,3.772,3.132c0.58-1.976,0.852-3.47,0.791-4.479c1.258-0.714,3.348-0.4,6.287,0.946
			c-2.033-1.893-3.85-3.07-5.414-3.555c-0.156-0.987,0.291-1.934,1.334-2.859l-2.864,1.682c-0.29-0.84-0.618-1.894-0.986-3.176
			l1.024-4.269C40.639,10.735,41.16,9.136,40.793,8.021z"/>
	</g>
</g>
</svg>
