<?xml version="1.0" encoding="utf-8"?>
<!-- Generator: Adobe Illustrator 16.0.0, SVG Export Plug-In . SVG Version: 6.00 Build 0)  -->
<!DOCTYPE svg PUBLIC "-//W3C//DTD SVG 1.1//EN" "http://www.w3.org/Graphics/SVG/1.1/DTD/svg11.dtd">
<svg version="1.1" id="Layer_1" xmlns="http://www.w3.org/2000/svg" xmlns:xlink="http://www.w3.org/1999/xlink" x="0px" y="0px"
	 width="40px" height="40px" viewBox="0 0 40 40" enable-background="new 0 0 40 40" xml:space="preserve">
<g>
	<g>
		<ellipse fill="#ED1C24" cx="20.359" cy="22.981" rx="15.677" ry="13.313"/>
		<linearGradient id="SVGID_1_" gradientUnits="userSpaceOnUse" x1="13.1592" y1="10.998" x2="27.5601" y2="34.9652">
			<stop  offset="0.6319" style="stop-color:#ED1C24"/>
			<stop  offset="0.6892" style="stop-color:#E71C24"/>
			<stop  offset="0.7441" style="stop-color:#DA1C23"/>
			<stop  offset="0.798" style="stop-color:#C81A20"/>
			<stop  offset="0.8512" style="stop-color:#AF161B"/>
			<stop  offset="0.9041" style="stop-color:#911013"/>
			<stop  offset="0.9558" style="stop-color:#700404"/>
			<stop  offset="1" style="stop-color:#510000"/>
		</linearGradient>
		<ellipse fill="url(#SVGID_1_)" cx="20.359" cy="22.981" rx="15.677" ry="13.313"/>
		
			<radialGradient id="SVGID_2_" cx="115.0801" cy="96.8418" r="15.9124" gradientTransform="matrix(0.5725 0 0 0.5753 -51.2397 -33.9722)" gradientUnits="userSpaceOnUse">
			<stop  offset="0" style="stop-color:#FDBA63"/>
			<stop  offset="0.0515" style="stop-color:#FBB05D"/>
			<stop  offset="0.297" style="stop-color:#F68642"/>
			<stop  offset="0.5233" style="stop-color:#F26331"/>
			<stop  offset="0.7231" style="stop-color:#EF4328"/>
			<stop  offset="0.8888" style="stop-color:#EE2925"/>
			<stop  offset="1" style="stop-color:#ED1C24"/>
		</radialGradient>
		<path fill="url(#SVGID_2_)" d="M24.473,21.926c0,4.288-4.065,8.186-9.725,8.186c-5.66,0-9.934-3.582-9.934-7.871
			c0-4.288,4.169-8.869,9.829-8.869C20.303,13.371,24.473,17.637,24.473,21.926z"/>
	</g>
	<g>
		<path fill="#192D18" d="M23.839,8.979c-0.26-0.958-1.423-1.2-1.622-1.48c1.742,2.461-0.32,1.786-0.941,0.675
			c-0.468-0.837,0.329-1.611,0.832-1.916c-0.851,0.032-1.722,0.526-2.621,1.483c0.184,0.642,0.348,1.167,0.493,1.588l1.432-0.841
			c-0.522,0.463-0.745,0.936-0.667,1.43c0.783,0.242,1.691,0.831,2.707,1.777c-1.47-0.673-2.514-0.831-3.143-0.473
			c0.029,0.505-0.106,1.251-0.396,2.24c-0.28-0.789-0.909-1.304-1.886-1.566c-0.677-0.179-1.528,0.084-2.553,0.788
			c0.667-0.852,1.122-1.472,1.374-1.861c0.223-0.326-0.174-0.768-1.199-1.314c0.938,0.452,1.586,0.242,1.944-0.631
			c-0.261,0.852-0.31,1.398-0.155,1.619c0.155,0.221,0.387,0.336,0.706,0.347c0.57-0.063,0.831-0.41,0.803-1.052
			c-0.126-0.284-0.146-0.925-0.068-1.924c0.077-1.009,0.319-1.872,0.725-2.597c0.396-0.726,0.749-0.289,0.188-1.004l-1.125-0.395
			c-0.28,0.979-0.116,2.513-0.996,4.553c-1.083-0.526-1.944-1.051-2.591-1.567l1.16,1.83c-1.016-0.01-1.76,0.116-2.234,0.378
			c-0.474,0.252-0.715,0.744-1.392,0.859c-0.687,0.115-1.25,0.209-2.672-0.749c0.526,0.354,1.415,1.686,2.343,1.938
			c1.286,0.263,2.226,0.939,2.297,0.325c-0.072,0.626,0.196,0.253-0.144,0.104c-2.022-0.884-6.196,3.707-6.7,3.936
			c3.771-1.718,6.561-3.327,7.852-1.221c0.288,0.47,0.768,1.148-0.072,2.088c-0.457,0.511-1.478,0.411-4.753,1.357
			c1.705-0.492,7.058,2.401,8.191-3.622c-0.091,0.484,2.425,1.163,3.644,2.667c1.371,1.694,1.936,2.702,2.339,5.121
			c0.164,0.986,0.403-4.584-0.132-6.04c-0.715-1.943-1.279-2.145-2.312-2.715c0.194,0.107,0.367-0.105,0.464-0.137
			c0.6-0.116,1.161-0.168,1.673-0.168h0.01c0.707,0,1.451,0.084,2.234,0.264c0.039,0.01,0.077,0.01,0.126,0.021l0.136,0.032
			c0.105,0.032,0.222,0.063,0.348,0.094l0.241,0.063c0.629,0.179,1.296,0.421,1.983,0.704c0.628,0.263,1.285,0.568,1.963,0.926
			c0.435,0.221,0.88,0.473,1.334,0.736c-0.28-0.4-0.59-0.779-0.929-1.136c-0.048-0.053-0.105-0.116-0.154-0.168
			c-1.817-1.861-5.9-3.994-9.485-3.905C23.318,10.417,24.283,10.612,23.839,8.979z"/>
		<path fill="#659A41" d="M23.839,8.716c-0.26-0.958-1.354-0.829-1.553-1.109c1.742,2.46-0.39,1.414-1.011,0.303
			c-0.468-0.837,0.329-1.348,0.832-1.653c-0.851,0.032-1.722,0.263-2.621,1.219c0.184,0.641,0.348,1.167,0.493,1.588l1.432-0.841
			c-0.522,0.463-0.745,0.936-0.667,1.43c0.783,0.242,1.691,0.831,2.707,1.777c-1.47-0.673-2.514-0.831-3.143-0.473
			c0.029,0.505-0.106,1.251-0.396,2.24c-0.28-0.789-0.909-1.304-1.886-1.566c-0.677-0.179-1.528,0.084-2.553,0.788
			c0.667-0.852,1.122-1.472,1.374-1.861c0.223-0.326-0.174-0.768-1.199-1.314c0.938,0.452,1.586,0.242,1.944-0.631
			c-0.261,0.852-0.31,1.398-0.155,1.619c0.155,0.221,0.387,0.336,0.706,0.347c0.57-0.063,0.831-0.41,0.803-1.052
			c-0.126-0.284-0.146-0.925-0.068-1.924c0.077-1.01,0.319-1.872,0.725-2.598c0.396-0.726,0.749-0.289,0.188-1.004l-1.125-0.394
			c-0.28,0.979-0.116,2.513-0.996,4.553c-1.083-0.526-1.896-0.725-2.544-1.24l1.113,1.502c-1.016-0.01-1.76,0.116-2.234,0.379
			c-0.474,0.252-0.715,0.743-1.392,0.859c-0.687,0.116-1.19,0.46-2.612-0.498c0.526,0.354,1.354,1.435,2.283,1.688
			c1.286,0.263,2.196-1.046,2.27-0.155c-0.052-0.628,0.224,0.732-0.117,0.583c-2.022-0.884-6.196,3.707-6.7,3.936
			c3.771-1.718,6.561-3.328,7.852-1.221c0.288,0.47,0.768,1.148-0.072,2.088c-0.457,0.511-1.478,0.411-4.753,1.357
			c1.705-0.492,7.058,2.401,8.191-3.622c-0.091,0.484,2.425,1.162,3.644,2.667c1.371,1.693,1.936,2.702,2.339,5.121
			c0.164,0.986,0.403-4.584-0.132-6.04c-0.715-1.943-1.279-2.145-2.312-2.715c0.194,0.107,0.367-0.105,0.464-0.136
			c0.6-0.116,1.161-0.168,1.673-0.168h0.01c0.707,0,1.451,0.084,2.234,0.263c0.039,0.01,0.077,0.01,0.126,0.021l0.136,0.032
			c0.105,0.032,0.222,0.063,0.348,0.095l0.241,0.063c0.629,0.179,1.296,0.421,1.983,0.705c0.628,0.263,1.285,0.568,1.963,0.925
			c0.435,0.221,0.88,0.473,1.334,0.736c-0.28-0.399-0.59-0.778-0.929-1.135c-0.048-0.053-0.105-0.116-0.154-0.168
			c-1.817-1.861-5.9-3.994-9.485-3.905C23.318,10.153,24.283,10.349,23.839,8.716z"/>
		<radialGradient id="SVGID_3_" cx="19.4619" cy="8.4023" r="4.4105" gradientUnits="userSpaceOnUse">
			<stop  offset="0" style="stop-color:#3C2415"/>
			<stop  offset="0.2307" style="stop-color:#3C2616"/>
			<stop  offset="0.3801" style="stop-color:#3D2C1A"/>
			<stop  offset="0.5064" style="stop-color:#3D361F"/>
			<stop  offset="0.62" style="stop-color:#394326"/>
			<stop  offset="0.7239" style="stop-color:#2D552F"/>
			<stop  offset="0.8077" style="stop-color:#006838"/>
		</radialGradient>
		<path fill="url(#SVGID_3_)" d="M20.076,3.986c-0.184-0.558-1.122-0.179-1.412-0.379c0.561,0.715,1.379-0.203,0.834,1.408
			c-0.266,0.788-0.666,1.269-0.706,2.51c-0.033,1.002-0.066,1.463,0.008,1.87c0.116,0.632-0.088,1.12-0.658,1.184
			c-0.319-0.011-0.551-0.126-0.706-0.347c-0.155-0.221-0.106-0.768,0.155-1.619c-0.358,0.873-1.006,1.083-1.944,0.631
			c1.025,0.547,1.422,0.988,1.199,1.314c-0.252,0.389-0.706,1.009-1.374,1.861c1.025-0.704,1.876-0.967,2.553-0.788
			c0.977,0.263,1.605,0.778,1.886,1.566c0.29-0.988,0.426-1.735,0.396-2.24c0.628-0.357,1.673-0.2,3.143,0.473
			c-1.016-0.946-1.924-1.535-2.707-1.777c-0.078-0.494,0.145-0.967,0.667-1.43l-1.432,0.841c-0.145-0.42-0.309-0.947-0.493-1.588
			l0.512-2.134C19.999,5.343,20.26,4.543,20.076,3.986z"/>
	</g>
</g>
</svg>
