<?xml version="1.0" encoding="utf-8"?>
<!-- Generator: Adobe Illustrator 16.0.1, SVG Export Plug-In . SVG Version: 6.00 Build 0)  -->
<!DOCTYPE svg PUBLIC "-//W3C//DTD SVG 1.1//EN" "http://www.w3.org/Graphics/SVG/1.1/DTD/svg11.dtd">
<svg version="1.1" id="Layer_1" xmlns="http://www.w3.org/2000/svg" xmlns:xlink="http://www.w3.org/1999/xlink" x="0px" y="0px"
	 width="30px" height="30px" viewBox="0 0 30 30" enable-background="new 0 0 30 30" xml:space="preserve">
<path fill="#FFFFFF" d="M1.5,6.107l1.115,6.101l25.462-4.655l-1.115-6.101L1.5,6.107z M14.563,5.364l2.835-0.518l-2.384,3.451
	L12.18,8.814L14.563,5.364z M9.179,9.363L6.345,9.882l2.384-3.451l2.835-0.518L9.179,9.363z M20.398,4.297l2.835-0.518L20.85,7.229
	l-2.834,0.518L20.398,4.297z M5.729,6.979L3.812,9.754L3.382,7.408L5.729,6.979z M23.85,6.681l1.918-2.775l0.428,2.346L23.85,6.681z
	"/>
<path fill="#FFFFFF" d="M2.615,12.208v15.1H28.5v-15.1H2.615z M26.343,20.566H4.792v-6.201h21.551V20.566z"/>
</svg>
