<?xml version="1.0" encoding="utf-8"?>
<!-- Generator: Adobe Illustrator 16.0.0, SVG Export Plug-In . SVG Version: 6.00 Build 0)  -->
<!DOCTYPE svg PUBLIC "-//W3C//DTD SVG 1.1//EN" "http://www.w3.org/Graphics/SVG/1.1/DTD/svg11.dtd">
<svg version="1.1" id="Layer_1" xmlns="http://www.w3.org/2000/svg" xmlns:xlink="http://www.w3.org/1999/xlink" x="0px" y="0px"
	 width="40px" height="40px" viewBox="0 0 40 40" enable-background="new 0 0 40 40" xml:space="preserve">
<g id="iv5gZr.tif">
	<g>
		<path fill-rule="evenodd" clip-rule="evenodd" fill="#FFFFFF" stroke="#FFFFFF" stroke-miterlimit="10" d="M27.443,15.598
			c1.134-0.25,2.437-0.733,3.76-0.787c3.952-0.156,7.13,2.725,7.809,6.612c0.752,4.312-2.677,8.744-7.952,9.379
			c-3.746,0.442-6.876-0.814-9.565-3.354c-1.261-1.191-1.256-1.191-1.935,0.468c-1.589,3.855-4.092,6.689-8.374,7.603
			c-4.717,1.006-9.219-1.564-10.129-5.89c-0.939-4.464,2.057-9.759,7.519-9.518c0.159,0.006,0.316-0.023,0.558-0.043
			c-0.525-1.193-1.106-2.329-1.522-3.516C6.399,13.09,6.22,9.606,8.46,6.508c2.616-3.617,6.41-4.783,10.673-4.024
			c4.279,0.76,6.628,3.774,7.686,7.774C27.285,12.01,27.261,13.895,27.443,15.598z"/>
	</g>
</g>
</svg>
