<?xml version="1.0" encoding="utf-8"?>
<!-- Generator: Adobe Illustrator 16.0.0, SVG Export Plug-In . SVG Version: 6.00 Build 0)  -->
<!DOCTYPE svg PUBLIC "-//W3C//DTD SVG 1.1//EN" "http://www.w3.org/Graphics/SVG/1.1/DTD/svg11.dtd">
<svg version="1.1" id="Layer_1" xmlns="http://www.w3.org/2000/svg" xmlns:xlink="http://www.w3.org/1999/xlink" x="0px" y="0px"
	 width="40px" height="40px" viewBox="0 0 40 40" enable-background="new 0 0 40 40" xml:space="preserve">
<g>
	<path fill="#FFFFFF" d="M32.297,33.33H7.403c-3.403,0-6.171-2.768-6.171-6.171V13.581C1.231,10.178,4,7.41,7.403,7.41h24.894
		c3.401,0,6.17,2.768,6.17,6.171V27.16C38.467,30.562,35.698,33.33,32.297,33.33z M7.403,11.112c-1.362,0-2.469,1.107-2.469,2.468
		v13.579c0,1.36,1.108,2.468,2.469,2.468h24.894c1.357,0,2.467-1.105,2.467-2.468V13.581c0-1.361-1.105-2.468-2.467-2.468
		L7.403,11.112L7.403,11.112z"/>
</g>
<path fill="#FFFFFF" d="M16.661,14.675c0-0.505,0.337-0.68,0.75-0.386l7.813,5.549c0.41,0.292,0.41,0.771,0,1.064l-7.814,5.549
	c-0.412,0.292-0.749,0.119-0.749-0.387V14.675L16.661,14.675z"/>
</svg>
