<?xml version="1.0" encoding="utf-8"?>
<!-- Generator: Adobe Illustrator 16.0.0, SVG Export Plug-In . SVG Version: 6.00 Build 0)  -->
<!DOCTYPE svg PUBLIC "-//W3C//DTD SVG 1.1//EN" "http://www.w3.org/Graphics/SVG/1.1/DTD/svg11.dtd">
<svg version="1.1" id="Layer_1" xmlns="http://www.w3.org/2000/svg" xmlns:xlink="http://www.w3.org/1999/xlink" x="0px" y="0px"
	 width="20px" height="20px" viewBox="0 0 20 20" enable-background="new 0 0 20 20" xml:space="preserve">
<g id="iv5gZr.tif">
	<g>
		<path fill-rule="evenodd" clip-rule="evenodd" fill="#FFFFFF" stroke="#FFFFFF" stroke-miterlimit="10" d="M13.633,7.638
			c0.558-0.123,1.199-0.361,1.85-0.387c1.945-0.077,3.509,1.341,3.843,3.254c0.37,2.122-1.317,4.303-3.913,4.616
			c-1.844,0.218-3.384-0.401-4.707-1.651c-0.621-0.586-0.618-0.586-0.953,0.23c-0.781,1.897-2.013,3.292-4.121,3.741
			c-2.321,0.495-4.537-0.77-4.985-2.898c-0.462-2.196,1.012-4.803,3.7-4.684c0.078,0.003,0.156-0.012,0.275-0.021
			C4.364,9.25,4.078,8.692,3.873,8.107C3.276,6.404,3.188,4.689,4.291,3.165c1.288-1.78,3.154-2.354,5.252-1.98
			c2.105,0.374,3.262,1.857,3.782,3.826C13.555,5.873,13.543,6.8,13.633,7.638z"/>
	</g>
</g>
</svg>
