<?xml version="1.0" encoding="utf-8"?>
<!-- Generator: Adobe Illustrator 16.0.0, SVG Export Plug-In . SVG Version: 6.00 Build 0)  -->
<!DOCTYPE svg PUBLIC "-//W3C//DTD SVG 1.1//EN" "http://www.w3.org/Graphics/SVG/1.1/DTD/svg11.dtd">
<svg version="1.1" id="Layer_1" xmlns="http://www.w3.org/2000/svg" xmlns:xlink="http://www.w3.org/1999/xlink" x="0px" y="0px"
	 width="40px" height="40px" viewBox="0 0 40 40" enable-background="new 0 0 40 40" xml:space="preserve">
<g>
	<linearGradient id="SVGID_1_" gradientUnits="userSpaceOnUse" x1="15.4893" y1="2.0283" x2="16.6969" y2="15.832">
		<stop  offset="0" style="stop-color:#A9B876"/>
		<stop  offset="0.3879" style="stop-color:#A6B671"/>
		<stop  offset="0.5769" style="stop-color:#A3B36D"/>
		<stop  offset="0.978" style="stop-color:#93A755"/>
	</linearGradient>
	<path fill="url(#SVGID_1_)" d="M13.126,2.69c1.799-0.844,4.542-1.28,6.712,0.908c1.067,1.076,1.327,3.591,1.038,5.124
		c-0.118,0.625-1.09,2.987-1.103,3.308c-0.363,0.272,0.22,3.18-0.097,3.542c-0.681-0.635-3.334-1.843-4.15-2.343
		c-0.863-0.09-1.691-1.656-2.367-1.978c-2.721-1.296-3.178-6.596-0.455-8.139L13.126,2.69z"/>
	<path fill="#93A755" stroke="#93A755" stroke-width="0.216" stroke-miterlimit="10" d="M25.689,10.698
		c1.069-1.848,3.448-2.901,5.414-2.756c2.205,0.162,3.568,1.816,4.021,3.178c-0.181,0.136,0.372,3.564,0.199,3.646
		c-2.574,1.217-8.534,0.195-10.85,0.104c-0.046-0.409,0.902-2.953,0.857-3.362L25.689,10.698z"/>
	<path fill="#8BA148" stroke="#8BA148" stroke-width="0.216" stroke-miterlimit="10" d="M6.232,9.92
		c1.135-0.545,2.659-0.298,3.567,0.519c1.362,0.908,1.842,3.554,2.206,4.961c-1.907-0.227-6.438,0.056-8.208,1.1
		c-0.5-0.681-0.548-2.114-0.517-2.897c0.058-1.45,1.05-2.506,1.948-3.262L6.232,9.92z"/>
	<path fill="#879F3C" d="M23.613,14.979c1.453-0.908,0.81-1.528,1.627-2.89c0.045,0.409,0.504-1.662,0.799-1.947
		c3.86-3.72,6.294-2.156,8.103-0.661c1.029,0.852,1.241,5.123,1.147,4.868c0.586,1.59-1.078,2.574-2.349,3.391
		c-1.362,1.09-2.893,0.233-4.324,0.643c-3.599,1.028-3.313,0.897-4.13,1.396c-0.5-0.272-0.805-1.857-1.304-2.176
		c-1.362,0.272-2.77,0.59-4.177,0.59c-1.453,0-2.587,1.044-3.995,1.317c-1.135,0.136-3.771,1.566-4.861,1.103
		c-3.686-1.564-5.539-2.953-6.432-4.426c0.243,0.401,5.164-3.151,8.157-0.949c1.162,0.855,3.181,1.729,4.271,0.05
		c-0.227-0.908-1.164-2.046-1.859-2.603c1.008,0.807,2.155-1.112,2.7,0.022c1.044-0.272,2.113,0.864,2.476,0.001
		c0.317,2.271,2.283,3.048,4.054,2.367L23.613,14.979z"/>
	<linearGradient id="SVGID_2_" gradientUnits="userSpaceOnUse" x1="19.6108" y1="16.2251" x2="19.7386" y2="23.5472">
		<stop  offset="0.2143" style="stop-color:#83A03D"/>
		<stop  offset="0.5215" style="stop-color:#88A63D"/>
		<stop  offset="0.8022" style="stop-color:#94B13D"/>
	</linearGradient>
	<path fill="url(#SVGID_2_)" stroke="#83A03D" stroke-width="0.216" stroke-miterlimit="10" d="M19.006,18.193
		c1.407,0,2.814-0.318,4.177-0.59c0.499,0.318,1.639-0.377,1.896-0.885c0.704-1.384,1.44,0,3.932,0.37
		c-0.675-0.101-2.741,1.604-3.06,2.285c-0.136,0.59-0.271,1.227-0.408,1.816c0.363,0.5,0.682,0.953,1,1.453
		c-3.679,0.635-7.401,0.137-11.124,0.318c-1.18,0.182-3.728,1.305-4.291,0.319c-0.13-0.228,0.032-1.284-0.194-1.103
		c-0.046-0.499-0.005-0.925-0.454-1.232c-0.717-0.491,0.989-1.027,1.035-1.526c1.18,0.091,2.361,0.227,3.496,0.091
		C16.418,19.238,17.553,18.193,19.006,18.193L19.006,18.193z"/>
	<path fill="#94B13D" stroke="#94B13D" stroke-width="0.216" stroke-miterlimit="10" d="M10.656,21.168
		c0.227-0.182,0.784,0.932,1.057,0.75c0.907,0.682,2.526,1.225,3.707,1.043c3.723-0.182,7.445,0.316,11.124-0.318
		c2.723,1.271,5.946,0.862,8.579,2.496c-0.091,0.182-0.272,0.59-0.363,0.818c-7.626,0.271-15.299,0-22.926,0.135
		c-1.816,0.182-3.314-0.861-4.858-1.498c-1.362,0.592-2.769,1.045-4.222,1.227c0.817-1.771,3.16-3.172,4.976-2.809
		c1.362,0.273,2.031,0.172,3.076-0.736L10.656,21.168z"/>
	<linearGradient id="SVGID_3_" gradientUnits="userSpaceOnUse" x1="18.1748" y1="20.2764" x2="21.8565" y2="37.5974">
		<stop  offset="0.2143" style="stop-color:#94B13D"/>
		<stop  offset="0.4024" style="stop-color:#99B73D"/>
		<stop  offset="0.5604" style="stop-color:#A1BF3F"/>
		<stop  offset="0.5818" style="stop-color:#AAC546"/>
		<stop  offset="0.6267" style="stop-color:#B8D054"/>
		<stop  offset="0.6724" style="stop-color:#C0D75E"/>
		<stop  offset="0.7198" style="stop-color:#C3DA61"/>
	</linearGradient>
	<path fill="url(#SVGID_3_)" d="M7.156,22.982c1.544,0.637,3.134,2.605,4.95,2.424c7.626-0.135,17.598-1.98,22.583-0.781
		c0.237,0.057,0.415,0.605,0.506,0.424c1.362,0.818,2.644,2.389,2.724,4.031c0.065,1.355-0.79,4.867-1.969,5.346
		c-5.086,2.061-6.702-0.887-8.666-3.67c-0.436-0.617-0.992-1.672-1.492-2.217c-1.453-0.727-5.984-3.424-1.942,4.557
		c-0.443-0.877-0.022,2.51-0.834,2.816c-10.796,4.068-7.873-5.363-8.58-6.023c-1.075-1.006-1.398-1.496-2.955-0.979
		c-1.589,0.529-1.612,2.689-4.61,3.209c-3.809,0.658-5.94-4.441-4.725-6.502c0.583-0.986,2.09-2.777,3.637-2.605L7.156,22.982z"/>
	<linearGradient id="SVGID_4_" gradientUnits="userSpaceOnUse" x1="15.4014" y1="2.2412" x2="16.8895" y2="14.3611">
		<stop  offset="0" style="stop-color:#BED73B"/>
		<stop  offset="0.4896" style="stop-color:#98AF3C"/>
		<stop  offset="0.8022" style="stop-color:#879F3C"/>
	</linearGradient>
	<path fill="url(#SVGID_4_)" stroke="#879F3C" stroke-width="0.216" stroke-miterlimit="10" d="M19.815,3.75
		c-0.765-1.182-4.254-1.634-5.285-1.391c-1.318,0.311-2.712,1.634-3.094,2.469c-0.506,1.105-0.417,4.138-0.417,4.138l4.799,5.32
		l3.963-0.278l-0.069-1.182c0,0,1.529-6.328,1.425-6.258C21.111,6.583,20.316,4.524,19.815,3.75z"/>
	<linearGradient id="SVGID_5_" gradientUnits="userSpaceOnUse" x1="29.584" y1="15.3369" x2="31.699" y2="7.9608">
		<stop  offset="0" style="stop-color:#879F3C"/>
		<stop  offset="0.2363" style="stop-color:#879F3C"/>
		<stop  offset="0.3836" style="stop-color:#8EA63F"/>
		<stop  offset="0.6258" style="stop-color:#A5BB4C"/>
		<stop  offset="0.8571" style="stop-color:#C3DA61"/>
	</linearGradient>
	<path fill="url(#SVGID_5_)" d="M26.125,10.092c0.827-1.863,5.145-3.315,7.553-1.131c1.154,1.088,1.785,2.873,1.375,5.256
		c-0.078,0.453-2.372,1.835-5.153,1.105c-5.278-0.884-4.451-3.021-4.373-3.578C25.643,10.864,25.746,10.945,26.125,10.092z"/>
	<linearGradient id="SVGID_6_" gradientUnits="userSpaceOnUse" x1="18.6758" y1="20.0161" x2="22.0684" y2="37.4697">
		<stop  offset="0.2143" style="stop-color:#94B13D"/>
		<stop  offset="0.3098" style="stop-color:#99B73D"/>
		<stop  offset="0.3901" style="stop-color:#A1BF3F"/>
		<stop  offset="0.4195" style="stop-color:#AAC546"/>
		<stop  offset="0.4815" style="stop-color:#B8D054"/>
		<stop  offset="0.5446" style="stop-color:#C0D75E"/>
		<stop  offset="0.6099" style="stop-color:#C3DA61"/>
		<stop  offset="0.6907" style="stop-color:#BDD35F"/>
		<stop  offset="0.7606" style="stop-color:#AEC458"/>
		<stop  offset="0.8264" style="stop-color:#98AF4F"/>
		<stop  offset="0.8898" style="stop-color:#7B9443"/>
		<stop  offset="0.9508" style="stop-color:#5B7737"/>
		<stop  offset="1" style="stop-color:#3D5E2C"/>
	</linearGradient>
	<path fill="url(#SVGID_6_)" d="M7.462,23.062c0.879,0.362,3.9-0.005,3.748-1.271c-0.166-1.381,1.434,1.977,2.215,1.898
		c2.79-0.051,9.107-3.779,13.134-1.301c1.19,0.732,5.275,1.554,8.436,2.314c0.238,0.059,0.646,0.494,0.737,0.312
		c1.361,0.818,2.187,2.391,2.694,3.955c0.762,2.35-0.992,5.055-2.171,5.533c-5.085,2.061-6.702-0.887-8.666-3.67
		c-0.436-0.617-0.992-1.672-1.492-2.217c-1.452-0.727-5.983-3.424-1.941,4.557c-0.444-0.875-0.023,2.51-0.835,2.816
		c-10.796,4.068-7.873-5.363-8.58-6.023c-1.076-1.006-1.398-1.496-2.955-0.979c-1.589,0.531-1.612,2.689-4.61,3.209
		c-3.809,0.658-5.94-4.441-4.725-6.502c0.583-0.986,2.09-2.777,3.636-2.605L7.462,23.062z"/>
	<path fill="#283F1B" stroke="#283F1B" stroke-width="0.216" stroke-miterlimit="10" d="M21.754,29.01
		c-0.384-3.527,3.644-1.693,4.307-0.449c0.115,0.215-0.129,0.818-0.245,0.619c-0.749-1.283-3.745-2.359-3.268,0.029
		c0.093,0.463,0.907,1.742,0.997,1.969l-0.203,1.168C22.081,30.516,21.771,29.17,21.754,29.01z"/>
	<linearGradient id="SVGID_7_" gradientUnits="userSpaceOnUse" x1="3.5317" y1="11.9834" x2="11.6305" y2="16.8496">
		<stop  offset="0" style="stop-color:#BED73B"/>
		<stop  offset="0.7912" style="stop-color:#83A03D"/>
	</linearGradient>
	<path fill="url(#SVGID_7_)" stroke="#8BA148" stroke-width="0.216" stroke-miterlimit="10" d="M11.835,15.457
		c0,0-1.223-3.504-1.239-3.661c-0.016-0.156-0.298-1.66-2.709-2.146c-1.801,0.157-4.15,0.642-4.792,3.602
		c0.141,2.522,0.438,4.307,2.741,5.372s2.913,1.378,2.913,1.378s1.645-0.876,1.817-1.707s0.72-1.206,1.018-1.457
		C11.881,16.588,12.057,16.048,11.835,15.457z"/>
	<path fill="#1F2D17" stroke="#1F2D17" stroke-width="0.216" stroke-miterlimit="10" d="M35.418,10.682
		c0.489,1.441,1.307,4.966-1.113,7.602c-1.996,2.177-6.838,0.136-8.069,3.469c0.079-0.214-0.579-0.774-0.399-1.161
		c0.262-0.56,0.18-0.868,1.024-1.282c2.12-1.038,5.221-0.208,7.036-1.934c1.861-1.498,1.698-3.426,1.68-6.174L35.418,10.682z"/>
	<path fill="#1F2D17" stroke="#1F2D17" stroke-width="0.216" stroke-miterlimit="10" d="M35.846,34.51
		c2.247-0.482,2.999-5.375,2.791-6.115c1.905,6.773-4.166,8.395-6.936,7.305c1.227-0.453,2.74-0.617,3.92-1.207L35.846,34.51z"/>
	<path fill="#3D5E2C" stroke="#3D5E2C" stroke-width="0.216" stroke-miterlimit="10" d="M11.969,10.612
		c-2.406-2.452-1.325-7.428,2.18-8.354c2.504-0.661,4.994-0.045,6.492,1.907c0.908,1.589,0.834,3.378,0.443,5.106
		c-0.247,1.093-1.986,4.23-0.486,5.318c1.297,0.94,2.682,0.54,3.47-0.097c0.675-0.545,0.72-2.017,1.038-2.789
		c1.044-4.222,6.93-5.631,9.698-2.09c0.364,0.454,0.673,1.023,0.772,1.589c0.165,0.931,1.184,3.636-1.459,6.186
		c-1.685,1.625-4.761,0.987-6.939,1.895c-0.635,0.182-1.091,0.588-1.252,1.116c-0.049,0.162-0.167,0.587,0.303,1.056
		c1.143,1.145,3.174,1.143,4.627,1.369c2.542,0.408,5.221,1.271,6.809,3.404c1.136,1.635,1.283,3.326,1.159,5.025
		c0,0-0.232,2.332-2.776,3.688c-1.062,0.564-2.093,0.912-4.147,0.775l-0.092,0.045c-3.086-0.998-4.268-4.176-5.992-6.582
		c0.046-0.227,0.057-0.564,0.147-0.791c0.655,0.717,1.143,1.42,1.444,1.891c0.409,0.635,0.866,1.307,1.264,1.844
		c0.584,0.789,1.049,1.643,1.911,2.051c2.452,1.453,6.485,0.344,7.303-2.379c0.274-0.82,0.262-1.533,0.155-2.457
		c-0.187-1.633-1.556-3.381-2.918-4.199c-2.633-1.634-5.906-1.124-8.579-2.496c-0.59-0.303-1.01-0.92-1.143-1.38
		c-0.168-0.582,0.058-1.524,0.498-2.003c1.492-1.623,4.185-0.93,6.228-1.384c3.224-1.135,3.745-5.867,1.702-8.183
		c-0.544-0.771-1.518-1.388-2.335-1.524c-1.952-0.272-3.706,0.062-5.317,2.108c-0.844,1.07-0.817,3.923-2.271,4.832
		c-1.771,0.681-4.125,0.292-4.442-1.978c0.045-0.409,0.117-0.907,0.194-1.265c0.227-1.038,0.703-1.808,1.038-3.21
		c0.361-1.518,0.066-3.606-0.94-4.669c-1.63-1.72-4.557-1.762-6.421-0.875c-2.827,1.345-2.912,6.368-0.324,7.912
		c0.681,0.5,1.459,1.167,2.108,1.849c0.663,0.696,1.19,1.208,1.028,2.417c-0.25,1.863-3.525,1.539-4.466-0.082
		c-0.729-1.257-0.454-3.622-1.816-4.529C8.956,9.86,7.238,9.57,6.103,10.115c-1.135,0.408-2.169,1.44-2.551,2.681
		c-0.533,1.734,0.119,4.724,2.973,5.848c1.592,0.627,3.859,1.557,4.41,2.66c0.85,1.699-1.663,2.133-3.435,1.881
		c-1.833-0.26-4.28,0.406-5.097,2.176c-1.407,2.725,0.43,7.045,4.811,6.5c1.727-0.213,2.392-1.932,3.851-3.066
		c1.112-0.865,2.592-1.121,3.352,0.67c0.443,1.047,0.208,2.615,0.428,3.729c0.278,1.412,1.033,2.773,2.21,3.162
		c2.066,0.68,3.681,0.143,5.009-0.211c-0.622,0.166-2.5,1.701-4.736,1.119c-2.76-0.719-3.062-4.139-3.288-6.545
		c0-0.863-0.446-1.639-1.04-1.719c-1.622-0.217-2.911,2.529-4.668,3.062c-2.343,0.711-4.76,0.115-5.94-1.928
		c-1.044-1.498-0.908-3.451-0.272-5.039c0.999-1.997,3.521-2.454,5.584-2.27c1.807,0.161,2.433-0.135,2.86-0.682
		c0.451-0.575-0.409-1.135-0.863-1.498c-1.634-0.999-3.541-1.498-5.039-2.679c-1.453-1.452-1.949-3.759-1.314-5.712
		c1.135-2.36,3.788-3.689,6.194-2.237c2.088,0.863,1.67,3.928,2.886,5.383c0.885,1.059,3.119,0.745,3.113-0.292
		C15.529,13.145,12.968,12.065,11.969,10.612L11.969,10.612z"/>
	<path fill="#1F2D17" stroke="#1F2D17" stroke-width="0.216" stroke-miterlimit="10" d="M23.545,31.178
		c0.999,1.406,1.237,3.717,0.046,4.949c-1.469,1.52-4.595,1.611-6.265,1.135c1.234,0.352,2.679-0.047,3.813-0.818
		c1.498-0.727,2.621-1.646,2.203-3.859l-0.415-0.895L23.545,31.178L23.545,31.178z"/>
</g>
</svg>
