<?xml version="1.0" encoding="utf-8"?>
<!-- Generator: Adobe Illustrator 16.0.0, SVG Export Plug-In . SVG Version: 6.00 Build 0)  -->
<!DOCTYPE svg PUBLIC "-//W3C//DTD SVG 1.1//EN" "http://www.w3.org/Graphics/SVG/1.1/DTD/svg11.dtd">
<svg version="1.1" id="Layer_1" xmlns="http://www.w3.org/2000/svg" xmlns:xlink="http://www.w3.org/1999/xlink" x="0px" y="0px"
	 width="80px" height="80px" viewBox="0 0 80 80" enable-background="new 0 0 80 80" xml:space="preserve">
<g>
	
		<linearGradient id="SVGID_1_" gradientUnits="userSpaceOnUse" x1="296.6641" y1="-277.2964" x2="299.0795" y2="-304.9062" gradientTransform="matrix(1 0 0 -1 -266 -274)">
		<stop  offset="0" style="stop-color:#AAB977"/>
		<stop  offset="0.3879" style="stop-color:#A7B672"/>
		<stop  offset="0.5769" style="stop-color:#A5B46E"/>
		<stop  offset="0.978" style="stop-color:#93A654"/>
	</linearGradient>
	<path fill="url(#SVGID_1_)" d="M25.939,4.622c3.598-1.688,9.084-2.56,13.424,1.816c2.133,2.151,2.654,7.182,2.076,10.248
		c-0.236,1.25-2.18,5.974-2.206,6.615c-0.726,0.544,0.44,6.36-0.194,7.084c-1.361-1.27-6.668-3.686-8.3-4.686
		c-1.726-0.18-3.382-3.312-4.733-3.956c-5.442-2.592-6.356-13.192-0.91-16.278L25.939,4.622z"/>
	<path fill="#93A654" stroke="#93A654" stroke-width="0.216" stroke-miterlimit="10" d="M51.066,20.638
		c2.137-3.696,6.895-5.803,10.828-5.513c4.41,0.324,7.135,3.632,8.041,6.356c-0.361,0.271,0.744,7.128,0.398,7.292
		c-5.148,2.434-17.068,0.39-21.701,0.208c-0.092-0.818,1.805-5.906,1.715-6.725L51.066,20.638z"/>
	<path fill="#8BA147" stroke="#8BA147" stroke-width="0.216" stroke-miterlimit="10" d="M12.151,19.082
		c2.271-1.09,5.318-0.596,7.134,1.038c2.725,1.816,3.685,7.108,4.412,9.922c-3.813-0.454-12.876,0.112-16.416,2.2
		c-1-1.362-1.096-4.229-1.034-5.794c0.116-2.9,2.101-5.012,3.896-6.524L12.151,19.082z"/>
	<path fill="#879F3C" d="M46.914,29.2c2.906-1.816,1.619-3.056,3.254-5.78c0.09,0.818,1.008-3.324,1.598-3.894
		c7.719-7.44,12.588-4.312,16.207-1.322c2.057,1.704,2.48,10.246,2.293,9.736c1.172,3.18-2.156,5.147-4.699,6.782
		c-2.723,2.18-5.785,0.466-8.646,1.285c-7.197,2.057-6.627,1.794-8.26,2.792c-1-0.544-1.609-3.714-2.609-4.352
		c-2.723,0.544-5.539,1.18-8.354,1.18c-2.906,0-5.174,2.088-7.99,2.634c-2.27,0.272-7.542,3.133-9.722,2.207
		c-7.372-3.129-11.078-5.906-12.864-8.853c0.486,0.802,10.328-6.302,16.314-1.898c2.324,1.71,6.362,3.458,8.542,0.101
		c-0.454-1.816-2.328-4.092-3.718-5.206c2.016,1.614,4.31-2.224,5.399,0.044c2.088-0.544,4.227,1.728,4.952,0.002
		c0.634,4.542,4.566,6.096,8.107,4.734L46.914,29.2z"/>
	
		<linearGradient id="SVGID_2_" gradientUnits="userSpaceOnUse" x1="304.9102" y1="-305.6885" x2="305.1658" y2="-320.3347" gradientTransform="matrix(1 0 0 -1 -266 -274)">
		<stop  offset="0.2143" style="stop-color:#84A03D"/>
		<stop  offset="0.5215" style="stop-color:#88A63D"/>
		<stop  offset="0.8022" style="stop-color:#95B13D"/>
	</linearGradient>
	<path fill="url(#SVGID_2_)" stroke="#84A03D" stroke-width="0.216" stroke-miterlimit="10" d="M37.699,35.627
		c2.814,0,5.629-0.636,8.355-1.18c0.996,0.636,3.277-0.754,3.791-1.771c1.408-2.768,2.881,0,7.865,0.74
		c-1.352-0.202-5.484,3.208-6.121,4.57c-0.273,1.18-0.543,2.453-0.816,3.633c0.727,1,1.363,1.906,2,2.906
		c-7.359,1.27-14.802,0.273-22.248,0.635c-2.36,0.365-7.456,2.611-8.582,0.639c-0.26-0.457,0.064-2.568-0.388-2.207
		c-0.092-0.998-0.01-1.85-0.908-2.465c-1.434-0.981,1.978-2.053,2.07-3.051c2.359,0.182,4.722,0.454,6.992,0.182
		C32.523,37.717,34.794,35.627,37.699,35.627L37.699,35.627z"/>
	<path fill="#95B13D" stroke="#95B13D" stroke-width="0.216" stroke-miterlimit="10" d="M21,41.578
		c0.453-0.363,1.567,1.863,2.113,1.5c1.814,1.363,5.052,2.449,7.414,2.086c7.446-0.363,14.891,0.633,22.248-0.637
		c5.447,2.543,11.893,1.725,17.158,4.992c-0.182,0.363-0.543,1.18-0.727,1.637c-15.252,0.543-30.598,0-45.852,0.27
		c-3.632,0.363-6.628-1.723-9.716-2.996c-2.724,1.184-5.538,2.09-8.444,2.453c1.634-3.541,6.32-6.344,9.952-5.617
		c2.724,0.547,4.062,0.344,6.152-1.473L21,41.578z"/>
	
		<linearGradient id="SVGID_3_" gradientUnits="userSpaceOnUse" x1="302.0391" y1="-313.7949" x2="309.4024" y2="-348.4365" gradientTransform="matrix(1 0 0 -1 -266 -274)">
		<stop  offset="0.2143" style="stop-color:#95B13D"/>
		<stop  offset="0.4024" style="stop-color:#9BB83E"/>
		<stop  offset="0.5604" style="stop-color:#A1BF3F"/>
		<stop  offset="0.5818" style="stop-color:#AAC544"/>
		<stop  offset="0.6267" style="stop-color:#B8CF53"/>
		<stop  offset="0.6724" style="stop-color:#C0D75F"/>
		<stop  offset="0.7198" style="stop-color:#C3DB63"/>
	</linearGradient>
	<path fill="url(#SVGID_3_)" d="M14,45.207c3.088,1.273,6.268,5.209,9.899,4.848c15.252-0.27,35.196-3.961,45.167-1.562
		c0.473,0.113,0.828,1.211,1.012,0.848c2.723,1.637,5.287,4.777,5.447,8.062c0.131,2.711-1.58,9.734-3.938,10.691
		c-10.174,4.121-13.404-1.773-17.332-7.34c-0.873-1.234-1.984-3.344-2.984-4.434c-2.906-1.453-11.968-6.848-3.885,9.113
		c-0.885-1.754-0.043,5.02-1.668,5.633C24.128,79.203,29.974,60.34,28.56,59.02c-2.15-2.012-2.796-2.992-5.91-1.957
		c-3.178,1.059-3.224,5.379-9.22,6.418c-7.618,1.316-11.88-8.883-9.45-13.004c1.166-1.973,4.18-5.555,7.274-5.211L14,45.207z"/>
	
		<linearGradient id="SVGID_4_" gradientUnits="userSpaceOnUse" x1="296.4902" y1="-277.7246" x2="299.4668" y2="-301.9674" gradientTransform="matrix(1 0 0 -1 -266 -274)">
		<stop  offset="0" style="stop-color:#BED73A"/>
		<stop  offset="0.4896" style="stop-color:#98AE3B"/>
		<stop  offset="0.8022" style="stop-color:#879F3C"/>
	</linearGradient>
	<path fill="url(#SVGID_4_)" stroke="#879F3C" stroke-width="0.216" stroke-miterlimit="10" d="M39.317,6.742
		c-1.53-2.364-8.508-3.268-10.57-2.782c-2.636,0.622-5.424,3.269-6.188,4.938c-1.012,2.21-0.834,8.275-0.834,8.275l9.598,10.641
		l7.927-0.557l-0.139-2.363c0,0,3.059-12.656,2.85-12.517C41.91,12.408,40.319,8.29,39.317,6.742z"/>
	
		<linearGradient id="SVGID_5_" gradientUnits="userSpaceOnUse" x1="324.8584" y1="-303.9155" x2="329.0879" y2="-289.1652" gradientTransform="matrix(1 0 0 -1 -266 -274)">
		<stop  offset="0" style="stop-color:#879F3C"/>
		<stop  offset="0.2363" style="stop-color:#879F3C"/>
		<stop  offset="0.3836" style="stop-color:#8EA53E"/>
		<stop  offset="0.6258" style="stop-color:#A6BC4B"/>
		<stop  offset="0.8571" style="stop-color:#C3DB63"/>
	</linearGradient>
	<path fill="url(#SVGID_5_)" d="M51.938,19.425c1.654-3.726,10.289-6.63,15.105-2.262c2.309,2.176,3.57,5.746,2.75,10.512
		c-0.156,0.906-4.742,3.67-10.305,2.21c-10.557-1.768-8.902-6.042-8.746-7.155C50.973,20.97,51.18,21.131,51.938,19.425z"/>
	
		<linearGradient id="SVGID_6_" gradientUnits="userSpaceOnUse" x1="303.0391" y1="-313.2734" x2="309.8236" y2="-348.1773" gradientTransform="matrix(1 0 0 -1 -266 -274)">
		<stop  offset="0.2143" style="stop-color:#95B13D"/>
		<stop  offset="0.3098" style="stop-color:#9BB83E"/>
		<stop  offset="0.3901" style="stop-color:#A1BF3F"/>
		<stop  offset="0.4195" style="stop-color:#AAC544"/>
		<stop  offset="0.4815" style="stop-color:#B8CF53"/>
		<stop  offset="0.5446" style="stop-color:#C0D75F"/>
		<stop  offset="0.6099" style="stop-color:#C3DB63"/>
		<stop  offset="0.6907" style="stop-color:#BDD360"/>
		<stop  offset="0.7606" style="stop-color:#AEC457"/>
		<stop  offset="0.8264" style="stop-color:#98AF4E"/>
		<stop  offset="0.8898" style="stop-color:#7B9443"/>
		<stop  offset="0.9508" style="stop-color:#5B7737"/>
		<stop  offset="1" style="stop-color:#3E5F2D"/>
	</linearGradient>
	<path fill="url(#SVGID_6_)" d="M14.611,45.367c1.758,0.723,7.8-0.012,7.496-2.543c-0.332-2.762,2.868,3.953,4.43,3.797
		c5.58-0.102,18.215-7.559,26.268-2.602c2.381,1.463,10.551,3.105,16.873,4.627c0.475,0.117,1.291,0.986,1.475,0.623
		c2.721,1.637,4.373,4.781,5.387,7.91c1.523,4.699-1.984,10.109-4.342,11.066c-10.17,4.121-13.404-1.773-17.332-7.34
		c-0.873-1.234-1.982-3.344-2.982-4.434C48.977,55.02,39.915,49.625,48,65.586c-0.889-1.75-0.047,5.02-1.672,5.633
		C24.737,79.355,30.584,60.492,29.17,59.172c-2.152-2.012-2.797-2.992-5.91-1.957c-3.179,1.062-3.225,5.377-9.221,6.418
		C6.422,64.949,2.159,54.75,4.59,50.629c1.166-1.973,4.18-5.555,7.271-5.211L14.611,45.367z"/>
	<path fill="#2A3F1F" stroke="#2A3F1F" stroke-width="0.216" stroke-miterlimit="10" d="M43.195,57.262
		c-0.768-7.055,7.289-3.387,8.613-0.898c0.23,0.43-0.258,1.637-0.488,1.238c-1.5-2.566-7.492-4.719-6.537,0.059
		c0.186,0.926,1.814,3.484,1.994,3.938l-0.406,2.336C43.85,60.273,43.23,57.582,43.195,57.262z"/>
	
		<linearGradient id="SVGID_7_" gradientUnits="userSpaceOnUse" x1="272.75" y1="-297.2061" x2="288.9488" y2="-306.9391" gradientTransform="matrix(1 0 0 -1 -266 -274)">
		<stop  offset="0" style="stop-color:#BED73A"/>
		<stop  offset="0.7912" style="stop-color:#84A03D"/>
	</linearGradient>
	<path fill="url(#SVGID_7_)" stroke="#8BA147" stroke-width="0.216" stroke-miterlimit="10" d="M23.357,30.156
		c0,0-2.446-7.008-2.478-7.322c-0.032-0.312-0.597-3.32-5.418-4.292c-3.603,0.314-8.301,1.284-9.584,7.204
		c0.281,5.044,0.876,8.614,5.481,10.744c4.606,2.13,5.826,2.756,5.826,2.756s3.29-1.752,3.634-3.414s1.44-2.412,2.036-2.914
		C23.449,32.417,23.802,31.337,23.357,30.156z"/>
	<path fill="#212E1A" stroke="#212E1A" stroke-width="0.216" stroke-miterlimit="10" d="M70.523,20.606
		c0.979,2.882,2.613,9.932-2.227,15.204c-3.992,4.354-13.676,0.271-16.137,6.938c0.156-0.428-1.158-1.549-0.799-2.323
		c0.525-1.119,0.361-1.735,2.049-2.563c4.238-2.076,10.441-0.416,14.07-3.868c3.723-2.996,3.398-6.852,3.361-12.348L70.523,20.606z"
		/>
	<path fill="#212E1A" stroke="#212E1A" stroke-width="0.216" stroke-miterlimit="10" d="M71.379,68.262
		c4.494-0.965,6-10.75,5.582-12.23c3.811,13.547-8.332,16.791-13.871,14.611c2.453-0.906,5.48-1.234,7.84-2.414L71.379,68.262z"/>
	<path fill="#3E5F2D" stroke="#3E5F2D" stroke-width="0.216" stroke-miterlimit="10" d="M23.625,20.465
		c-4.812-4.903-2.649-14.855,4.36-16.708c5.008-1.321,9.988-0.09,12.983,3.814c1.816,3.178,1.668,6.756,0.887,10.212
		c-0.494,2.187-3.972,8.46-0.973,10.636c2.594,1.88,5.363,1.08,6.941-0.193c1.35-1.091,1.439-4.034,2.074-5.578
		c2.09-8.444,13.861-11.263,19.398-4.181c0.727,0.908,1.344,2.046,1.543,3.179c0.33,1.861,2.367,7.271-2.918,12.372
		c-3.371,3.25-9.523,1.974-13.879,3.79c-1.27,0.363-2.182,1.176-2.504,2.231c-0.098,0.323-0.334,1.175,0.605,2.113
		c2.287,2.289,6.348,2.285,9.254,2.738c5.086,0.816,10.443,2.543,13.619,6.809c2.271,3.27,2.566,6.652,2.318,10.049
		c0,0-0.465,4.664-5.553,7.377c-2.123,1.127-4.186,1.824-8.295,1.549l-0.184,0.09c-6.172-1.994-8.535-8.352-11.984-13.162
		c0.094-0.455,0.115-1.129,0.295-1.582c1.311,1.434,2.287,2.84,2.889,3.781c0.816,1.27,1.73,2.613,2.527,3.688
		c1.168,1.578,2.098,3.285,3.822,4.102c4.904,2.906,12.971,0.688,14.607-4.758c0.547-1.641,0.523-3.066,0.309-4.914
		c-0.375-3.266-3.113-6.762-5.836-8.398c-5.266-3.268-11.812-2.246-17.158-4.992c-1.18-0.605-2.02-1.84-2.287-2.758
		c-0.336-1.165,0.117-3.05,0.996-4.008c2.984-3.245,8.371-1.859,12.457-2.768c6.449-2.27,7.49-11.734,3.404-16.366
		c-1.088-1.542-3.037-2.775-4.67-3.048c-3.904-0.544-7.412,0.124-10.635,4.216c-1.688,2.141-1.635,7.847-4.541,9.664
		c-3.543,1.362-8.25,0.584-8.885-3.956c0.09-0.817,0.234-1.813,0.389-2.529c0.453-2.076,1.405-3.616,2.074-6.42
		c0.723-3.036,0.133-7.213-1.879-9.339c-3.26-3.439-9.113-3.523-12.842-1.75c-5.654,2.69-5.824,12.736-0.647,15.824
		c1.361,1,2.918,2.334,4.216,3.698c1.326,1.392,2.38,2.416,2.056,4.834c-0.5,3.726-7.05,3.078-8.932-0.164
		c-1.458-2.514-0.908-7.244-3.632-9.058c-1.818-1.639-5.255-2.219-7.524-1.128c-2.271,0.815-4.338,2.88-5.103,5.361
		c-1.065,3.468,0.238,9.448,5.946,11.696c3.185,1.254,7.718,3.114,8.82,5.322c1.7,3.396-3.326,4.266-6.87,3.762
		c-3.666-0.521-8.56,0.811-10.194,4.352c-2.813,5.449,0.86,14.09,9.622,13c3.454-0.426,4.784-3.863,7.702-6.133
		c2.224-1.73,5.185-2.242,6.704,1.34c0.886,2.094,0.416,5.23,0.856,7.457c0.556,2.824,2.065,5.547,4.42,6.324
		c4.132,1.361,7.362,0.287,10.019-0.422c-1.246,0.332-5.001,3.402-9.473,2.238c-5.521-1.438-6.124-8.277-6.576-13.09
		c0-1.727-0.893-3.277-2.08-3.438c-3.244-0.434-5.822,5.059-9.336,6.125c-4.686,1.422-9.521,0.229-11.88-3.857
		c-2.088-2.996-1.816-6.9-0.544-10.076c1.998-3.996,7.042-4.91,11.168-4.541c3.613,0.322,4.866-0.271,5.72-1.365
		c0.902-1.148-0.818-2.27-1.726-2.997c-3.269-1.997-7.082-2.995-10.078-5.357C6.105,32.27,5.113,27.656,6.384,23.75
		c2.27-4.72,7.575-7.378,12.388-4.474c4.176,1.726,3.34,7.855,5.772,10.766c1.77,2.118,6.237,1.49,6.226-0.584
		C30.745,25.532,25.623,23.372,23.625,20.465L23.625,20.465z"/>
	<path fill="#212E1A" stroke="#212E1A" stroke-width="0.216" stroke-miterlimit="10" d="M46.777,61.598
		c1.998,2.812,2.475,7.434,0.092,9.898c-2.938,3.039-9.189,3.223-12.529,2.27c2.468,0.705,5.357-0.094,7.625-1.637
		c2.996-1.453,5.242-3.291,4.406-7.717l-0.83-1.791L46.777,61.598L46.777,61.598z"/>
</g>
</svg>
