<?xml version="1.0" encoding="utf-8"?>
<!-- Generator: Adobe Illustrator 16.0.0, SVG Export Plug-In . SVG Version: 6.00 Build 0)  -->
<!DOCTYPE svg PUBLIC "-//W3C//DTD SVG 1.1//EN" "http://www.w3.org/Graphics/SVG/1.1/DTD/svg11.dtd">
<svg version="1.1" id="Layer_1" xmlns="http://www.w3.org/2000/svg" xmlns:xlink="http://www.w3.org/1999/xlink" x="0px" y="0px"
	 width="40px" height="40px" viewBox="0 0 40 40" enable-background="new 0 0 40 40" xml:space="preserve">
<g>
	<path fill="#FFFFFF" d="M23.285,31.977H12.87v-9.455c0.228,0.1,0.479,0.154,0.745,0.154v8.555h8.925v-6.387l-1.133-1.135
		l0.527-0.525c0.144-0.145,0.144-0.381,0-0.525c-0.146-0.145-0.383-0.145-0.527,0l-0.526,0.525l-1.253-1.254
		c-0.021,0.002-0.042,0.002-0.062,0.002c-0.616,0-1.116-0.498-1.116-1.114h-0.744c0,0.616-0.5,1.114-1.116,1.114
		c-0.617,0-1.116-0.498-1.116-1.114H14.73c0,0.616-0.5,1.114-1.115,1.114c-0.617,0-1.117-0.498-1.117-1.114h-1.116v12.645h13.389
		v-9.438l-1.486,1.487V31.977z"/>
	<path fill="#FFFFFF" d="M16.146,15.819c0.436,0.436,0.436,1.142,0,1.578l0.526,0.526c0.436-0.436,1.143-0.436,1.578,0
		c0.436,0.436,0.436,1.143,0,1.579l0.527,0.525c0.436-0.436,1.143-0.436,1.578,0c0.436,0.436,0.436,1.144,0,1.578l0.525,0.527
		c0.436-0.436,1.142-0.436,1.579,0c0.436,0.435,0.436,1.141,0,1.576l0.789,0.789l8.941-8.941l-9.467-9.469l-8.943,8.943l0.789,0.789
		C15.003,15.384,15.71,15.384,16.146,15.819z M20.88,19.502c-0.43-0.43-1.019-0.605-1.578-0.526c0.079-0.56-0.096-1.148-0.526-1.578
		l2.367-2.367l-1.052-1.052h4.208v4.208l-1.051-1.052L20.88,19.502z M22.723,8.192l7.363,7.364l-6.685,6.686
		c-0.091-0.23-0.229-0.449-0.417-0.637l6.051-6.049l-6.312-6.312l-2.819,2.818l-3.231,3.231c-0.188-0.188-0.404-0.326-0.635-0.417
		L22.723,8.192z"/>
</g>
</svg>
