<?xml version="1.0" encoding="utf-8"?>
<!-- Generator: Adobe Illustrator 16.0.1, SVG Export Plug-In . SVG Version: 6.00 Build 0)  -->
<!DOCTYPE svg PUBLIC "-//W3C//DTD SVG 1.1//EN" "http://www.w3.org/Graphics/SVG/1.1/DTD/svg11.dtd">
<svg version="1.1" id="Layer_1" xmlns="http://www.w3.org/2000/svg" xmlns:xlink="http://www.w3.org/1999/xlink" x="0px" y="0px"
	 width="30px" height="30px" viewBox="0 0 30 30" enable-background="new 0 0 30 30" xml:space="preserve">
<g>
	<path fill="#FFFFFF" d="M11.525,6.58h1.968C13.268,6.482,13.098,6.307,13,6.061c-0.122-0.31-0.142-0.746,0.387-1.135
		c-0.024-0.11-0.02-0.21-0.031-0.316c-0.09,0.009-0.195,0.051-0.319,0.142l-0.203,0.144l-0.182-0.166
		c-0.146-0.135-0.292-0.208-0.414-0.208c-0.068,0-0.126,0.024-0.181,0.078c-0.055,0.051-0.106,0.144-0.128,0.23
		c-0.02,0.078-0.015,0.173,0.155,0.365l0.194,0.217L12.07,5.616C11.752,5.932,11.574,6.249,11.525,6.58z"/>
	<line fill="#FFFFFF" x1="11.525" y1="6.58" x2="13.493" y2="6.58"/>
</g>
<g>
	<path fill="#FFFFFF" d="M14.004,4.26c0.009-0.111-0.002-0.217-0.009-0.321c-0.026,0.089-0.031,0.19-0.037,0.288
		C13.973,4.242,13.988,4.242,14.004,4.26z"/>
	<path fill="#FFFFFF" d="M13.734,3.141c-0.122-0.187-0.27-0.358-0.486-0.507c-0.533-0.367-1.243-0.352-1.758,0.042
		c-0.187,0.142-0.33,0.297-0.442,0.462c0.1,0.042,0.203,0.075,0.294,0.137c0.296,0.204,0.504,0.451,0.657,0.726
		c0.281-0.084,0.586-0.079,0.882,0.124c0.173-0.091,0.337-0.135,0.496-0.14C13.434,3.678,13.539,3.39,13.734,3.141z"/>
</g>
<g>
	<path fill="#FFFFFF" d="M17.819,4.125c0.184-0.098,0.373-0.162,0.528-0.148c0.156,0.014,0.304,0.17,0.304,0.17
		c0.02-0.538-0.184-0.949-0.638-1.261c-0.416-0.285-0.994-0.272-1.397,0.033c-0.009,0.007-0.013,0.013-0.02,0.02
		c0.281,0.279,0.433,0.617,0.515,0.991C17.344,3.912,17.587,3.965,17.819,4.125z"/>
</g>
<path fill="#FFFFFF" d="M16.395,5.376c-0.105-0.17-0.196-0.416-0.119-0.704c0.049-0.188,0.153-0.36,0.281-0.488
	c-0.044-0.418-0.239-0.757-0.621-1.018c-0.418-0.288-0.996-0.272-1.398,0.035c-0.573,0.436-0.734,1-0.502,1.77l0.068,0.234
	l-0.21,0.122c-0.427,0.246-0.367,0.396-0.323,0.506c0.058,0.15,0.226,0.279,0.64,0.19l0.265-0.058l0.086,0.256
	c0.064,0.182,0.15,0.226,0.234,0.244c0.084,0.02,0.159,0.049,0.332-0.122l0.204-0.197l0.215,0.188
	c0.112,0.102,0.22,0.154,0.303,0.154c0.002,0,0.004-0.005,0.006-0.005C15.913,6.102,16.09,5.73,16.395,5.376z"/>
<g>
	<path fill="#FFFFFF" d="M21.219,5.693c-0.023-0.077-0.188-0.241-0.307-0.278c-0.12-0.037-0.301-0.027-0.301-0.027l0.066-0.283
		c0.177-0.778-0.009-1.323-0.584-1.716c-0.288-0.199-0.64-0.199-0.971-0.113c0.146,0.35,0.188,0.748,0.121,1.197
		c0.266,0.048,0.392,0.184,0.507,0.298c0.128,0.128,0.263,0.339,0.259,0.644c0.418,0.213,0.559,0.494,0.6,0.744l0.055,0.009
		c0.306,0.053,0.521-0.021,0.57-0.21C21.252,5.883,21.245,5.777,21.219,5.693z"/>
</g>
<path fill="#FFFFFF" d="M20.01,6.392c0.018-0.095,0.062-0.316-0.438-0.5l-0.254-0.095l0.062-0.266
	c0.046-0.186-0.005-0.268-0.064-0.33c-0.088-0.09-0.19-0.108-0.345-0.075L18.69,5.184L18.611,4.91
	c-0.115-0.39-0.323-0.385-0.633-0.16l-0.203,0.144l-0.184-0.166c-0.146-0.135-0.293-0.208-0.414-0.208
	c-0.068,0-0.126,0.024-0.181,0.077c-0.054,0.051-0.106,0.144-0.129,0.23c-0.02,0.077-0.016,0.173,0.157,0.365L17.22,5.41
	l-0.208,0.206c-0.319,0.316-0.498,0.633-0.547,0.964h3.432C19.981,6.527,19.998,6.455,20.01,6.392z"/>
<path fill="#FFFFFF" d="M9.75,6.58H8.819c-1.372,0-2.484,1.11-2.484,2.481l2.486,16.086c0,0.782,0.363,1.48,0.929,1.936L9.75,6.58
	L9.75,6.58z"/>
<rect x="11.872" y="6.58" fill="#FFFFFF" width="2.119" height="21.051"/>
<path fill="#FFFFFF" d="M21.182,6.58h-0.827v20.411c0.504-0.455,0.823-1.111,0.823-1.844l2.485-16.086
	C23.664,7.69,22.551,6.58,21.182,6.58z"/>
<g>
	<rect x="11.872" y="6.58" fill="#FFFFFF" width="2.119" height="21.051"/>
</g>
<rect x="16.112" y="6.58" fill="#FFFFFF" width="2.123" height="21.051"/>
<g>
	<rect x="16.112" y="6.58" fill="#FFFFFF" width="2.123" height="21.051"/>
</g>
<path fill="#FFFFFF" d="M11.334,4.673c0.031-0.112,0.108-0.196,0.17-0.294c-0.106-0.228-0.266-0.432-0.511-0.6
	c-0.416-0.283-0.995-0.27-1.396,0.035C9.022,4.253,8.863,4.817,9.094,5.589l0.07,0.232l-0.21,0.122
	C8.527,6.187,8.587,6.339,8.629,6.45C8.648,6.498,8.68,6.543,8.726,6.58h2.184c0.039-0.419,0.217-0.821,0.547-1.203
	C11.352,5.206,11.259,4.96,11.334,4.673z"/>
</svg>
